<svg height="400pt" viewBox="0 0 400 400" width="400pt" xmlns="http://www.w3.org/2000/svg"><path d="m317.199219 48c-28.734375.359375-57.015625 7.226562-82.71875 20.078125l-1.199219-4.078125c-33-24.53125-73.042969-37.746094-114.160156-37.679688l-.160156-.320312c64.988281-30.351562 141.488281-21.863281 198.238281 22zm0 0" fill="#90dd73"/><path d="m233.28125 64 1.199219 4.078125c-36.59375 18.21875-66.433594 47.609375-85.199219 83.921875-33.578125-25.96875-74.835938-40.039062-117.28125-40h-2.558594c19.46875-37.808594 50.960938-68.0625 89.519532-86l.160156.320312c41.117187-.066406 81.160156 13.148438 114.160156 37.679688zm0 0" fill="#7ed39c"/><path d="m372.320312 115.441406c-48.175781 27.703125-88.402343 67.351563-116.800781 115.117188-13.40625 22.539062-23.992187 46.640625-31.519531 71.761718h-.078125c-.144531-25.632812-5.480469-50.96875-15.683594-74.480468-12.914062-29.863282-33.203125-55.957032-58.957031-75.839844 18.765625-36.3125 48.605469-65.703125 85.199219-83.921875 25.703125-12.851563 53.984375-19.71875 82.71875-20.078125h.082031c23.25 17.984375 42.078125 41.054688 55.039062 67.441406zm0 0" fill="#58af7a"/><path d="m118.71875 209.199219c-4.640625-.238281-9.359375-.320313-14.078125-.320313-32.316406-.054687-64.414063 5.296875-94.960937 15.839844-1.128907-8.191406-1.6875-16.449219-1.679688-24.71875-.0625-30.632812 7.292969-60.828125 21.441406-88h2.558594c76.589844.015625 145.847656 45.539062 176.238281 115.839844-28.671875-10.882813-58.882812-17.171875-89.519531-18.640625zm0 0" fill="#389a6b"/><path d="m118.71875 209.199219c30.636719 1.46875 60.847656 7.757812 89.519531 18.640625 10.203125 23.511718 15.539063 48.847656 15.683594 74.480468.066406.558594.089844 1.117188.078125 1.679688.039062 30.585938-7.257812 60.734375-21.28125 87.921875-.878906.078125-1.839844.078125-2.71875.078125-96.453125-.042969-177.902344-71.632812-190.320312-167.28125 30.546874-10.542969 62.644531-15.894531 94.960937-15.839844 4.71875 0 9.4375.082032 14.078125.320313zm0 0" fill="#389a6b"/><path d="m224 302.320312c7.527344-25.121093 18.113281-49.222656 31.519531-71.761718 28.398438-47.765625 68.625-87.414063 116.800781-115.117188 13 26.289063 19.734376 55.230469 19.679688 84.558594-.03125 104.953125-84.335938 190.433594-189.28125 191.921875 14.023438-27.1875 21.320312-57.335937 21.28125-87.921875.011719-.5625-.011719-1.121094-.078125-1.679688zm0 0" fill="#90dd73"/><path d="m351.480469 207.199219c-5.90625-.566407-12-.839844-18.519531-.839844-19.511719-.019531-38.917969 2.828125-57.601563 8.449219 26.367187-37.640625 60.632813-69.070313 100.402344-92.097656-2.160157-4.894532-4.472657-9.703126-7.019531-14.398438-.289063.121094-.574219.257812-.847657.414062-22.96875 13.304688-44.253906 29.324219-63.398437 47.714844 0-1.488281.144531-2.976562.144531-4.464844.042969-25.09375-4.648437-49.972656-13.832031-73.328124l-14.898438 5.855468c11.199219 28.453125 15.097656 59.253906 11.347656 89.601563-24.71875 27.296875-44.609374 58.601562-58.816406 92.574219-2.710937-14.441407-7.023437-28.535157-12.855468-42.023438-12.546876-28.914062-31.730469-54.460938-56-74.566406 18.109374-32.226563 45.433593-58.304688 78.46875-74.890625 24.582031-12.324219 51.648437-18.890625 79.144531-19.199219h9.730469c-6.375-5.636719-13.117188-10.847656-20.175782-15.59375-23.761718 1.527344-47.050781 7.355469-68.730468 17.203125-29.78125-22.191406-65.207032-35.550781-102.222657-38.554687-12.109375 4.289062-23.757812 9.789062-34.761719 16.417968l18.058594-1.121094c36.640625-.050781 72.445313 10.949219 102.742188 31.558594-31.25 17.695313-57.210938 43.414063-75.199219 74.496094-33.0625-23.367188-72.496094-36.042969-112.984375-36.308594-2.949219 5.101563-5.667969 10.351563-8.160156 15.742188l3.945312.160156h2.558594c40.691406-.105469 80.25 13.386719 112.390625 38.335938 19.578125 15.152343 35.902344 34.089843 48 55.6875-23.789063-7.289063-48.394531-11.589844-73.246094-12.800782-4.800781-.246094-9.601562-.328125-14.496093-.328125-32.597657-.0625-64.980469 5.246094-95.847657 15.722657.46875 5.449218 1.160157 10.832031 2.078125 16.152343l.679688-.234375.800781-.261718c28.304687-9.753907 57.984375-14.929688 87.921875-15.335938-17.460938 19.664062-30.875 42.578125-39.480469 67.429688l15.136719 5.183593c9.417969-27.261719 25.089844-51.9375 45.757812-72.054687 27.5 1.652344 54.609376 7.296875 80.480469 16.761718 8.945313 21.609376 13.613281 44.753907 13.746094 68.140626 0 .355468 0 1.28125.078125 1.601562.105469 29.054688-6.753906 57.714844-20 83.574219l-2.742188 4.257812c2.238282.070313 4.476563.167969 6.742188.167969 3.945312 0 7.847656-.160156 11.734375-.390625 13.386719-27.261719 20.320313-57.238281 20.265625-87.609375 0-.121094 0-.230469 0-.351562 7.089844-23.316407 16.882812-45.71875 29.175781-66.761719 22.695313-9.667969 47.117188-14.621094 71.785157-14.566407 6.046874 0 11.605468.246094 17 .757813zm0 0" fill="#2e8059"/><path d="m200 0c-110.457031 0-200 89.542969-200 200s89.542969 200 200 200 200-89.542969 200-200c-.125-110.40625-89.59375-199.875-200-200zm161.800781 112.441406c-20.617187 12.445313-39.820312 27.09375-57.273437 43.6875 0-1.367187.136718-2.746094.136718-4.113281.042969-25.117187-4.671874-50.019531-13.894531-73.382813l-14.882812 5.871094c8.476562 21.492188 12.8125 44.394532 12.777343 67.496094-.023437 7.316406-.472656 14.625-1.351562 21.886719-24.6875 27.355469-44.59375 58.675781-58.878906 92.640625-8.742188-45.640625-33.09375-86.816406-68.882813-116.464844 31.542969-56.386719 90.398438-92.050781 154.984375-93.910156 19.355469 15.421875 35.425782 34.558594 47.265625 56.289062zm-68-70.640625c-19.269531 2.492188-38.070312 7.792969-55.808593 15.726563-24.585938-18.234375-53.066407-30.519532-83.199219-35.894532 47.171875-11.960937 97.164062-4.707031 138.992187 20.167969zm-173.914062-7.402343c36.34375.089843 71.832031 11.039062 101.90625 31.441406-31.265625 17.632812-57.207031 43.359375-75.097657 74.480468-30.527343-21.515624-66.5-33.992187-103.792968-36 18.460937-30.179687 45.175781-54.441406 76.984375-69.921874zm-85.597657 85.671874c65.6875.859376 125.941407 36.660157 158.109376 93.9375-57.289063-17.550781-118.523438-17.535156-175.804688.039063-.355469-4.640625-.59375-9.3125-.59375-14.046875-.03125-27.691406 6.222656-55.023438 18.296875-79.945312zm-15.761718 110.175782c26.433594-8.414063 53.960937-12.894532 81.695312-13.292969-17.410156 19.679687-30.789062 42.589844-39.367187 67.429687l15.144531 5.21875c9.417969-27.300781 25.109375-52.007812 45.816406-72.136718 27.464844 1.601562 54.546875 7.226562 80.375 16.695312 9.132813 22.152344 13.824219 45.878906 13.808594 69.839844.0625 27.695312-6.199219 55.039062-18.3125 79.945312-89.007812-1.230468-164.40625-65.914062-179.160156-153.699218zm197.082031 153.042968c10.785156-25.042968 16.363281-52.019531 16.390625-79.289062v-.375c7.039062-23.25 16.75-45.605469 28.9375-66.617188 28.066406-11.9375 58.65625-16.726562 89.03125-13.929687l1.457031-15.933594c-25.679687-2.367187-51.574219.238281-76.265625 7.671875 24.824219-35.445312 56.703125-65.378906 93.640625-87.921875 23.558594 54.320313 19.519531 116.65625-10.847656 167.484375-30.367187 50.824219-83.347656 83.917969-142.34375 88.910156zm0 0"/></svg>